<?xml version="1.0" encoding="iso-8859-1"?>
<!-- Generator: Adobe Illustrator 19.0.0, SVG Export Plug-In . SVG Version: 6.00 Build 0)  -->
<svg version="1.1" id="Layer_1" xmlns="http://www.w3.org/2000/svg" xmlns:xlink="http://www.w3.org/1999/xlink" x="0px" y="0px"
	 viewBox="0 0 512 512" style="enable-background:new 0 0 512 512;" xml:space="preserve">
<circle style="fill:#E21B1B;" cx="256" cy="129.912" r="129.912"/>
<path style="fill:#FFFFFF;" d="M58.576,504C64.528,388.584,151.592,296,256,296s191.48,92.584,197.424,208H58.576z"/>
<path d="M256,304c50.656,0.424,98.752,22.328,132.328,60.264c32.88,36.464,52.76,82.784,56.536,131.736H67.136
	c3.776-48.944,23.656-95.264,56.528-131.72C157.24,326.336,205.336,304.424,256,304 M256,288c-112.312,0-203.456,99.904-205.704,224
	h411.408C459.456,387.904,368.312,288,256,288z"/>
<g>
</g>
<g>
</g>
<g>
</g>
<g>
</g>
<g>
</g>
<g>
</g>
<g>
</g>
<g>
</g>
<g>
</g>
<g>
</g>
<g>
</g>
<g>
</g>
<g>
</g>
<g>
</g>
<g>
</g>
</svg>
