<?xml version="1.0" encoding="UTF-8" standalone="no"?>
<svg
   width="700"
   height="900"
   version="1.1"
   viewBox="0 0 185.20834 238.12501"
   id="svg380"
   sodipodi:docname="background.svg"
   inkscape:version="1.2.1 (ef4d3fba62, 2022-07-19, custom)"
   xmlns:inkscape="http://www.inkscape.org/namespaces/inkscape"
   xmlns:sodipodi="http://sodipodi.sourceforge.net/DTD/sodipodi-0.dtd"
   xmlns:xlink="http://www.w3.org/1999/xlink"
   xmlns="http://www.w3.org/2000/svg"
   xmlns:svg="http://www.w3.org/2000/svg"
   xmlns:rdf="http://www.w3.org/1999/02/22-rdf-syntax-ns#"
   xmlns:cc="http://creativecommons.org/ns#"
   xmlns:dc="http://purl.org/dc/elements/1.1/">
  <sodipodi:namedview
     id="namedview382"
     pagecolor="#ffffff"
     bordercolor="#000000"
     borderopacity="0.25"
     inkscape:showpageshadow="2"
     inkscape:pageopacity="0.0"
     inkscape:pagecheckerboard="0"
     inkscape:deskcolor="#d1d1d1"
     showgrid="false"
     inkscape:zoom="0.58984375"
     inkscape:cx="462.83444"
     inkscape:cy="521.3245"
     inkscape:window-width="1366"
     inkscape:window-height="656"
     inkscape:window-x="0"
     inkscape:window-y="27"
     inkscape:window-maximized="1"
     inkscape:current-layer="g324">
    <inkscape:grid
       type="xygrid"
       id="grid1163"
       originx="0"
       originy="0" />
  </sodipodi:namedview>
  <defs
     id="defs310">
    <linearGradient
       id="linearGradient13178">
      <stop
         stop-color="#d35400"
         offset="0"
         id="stop269" />
      <stop
         stop-color="#fdbc4b"
         offset="1"
         id="stop271" />
    </linearGradient>
    <linearGradient
       id="linearGradient1339">
      <stop
         offset="0"
         id="stop274" />
      <stop
         stop-opacity="0"
         offset="1"
         id="stop276" />
    </linearGradient>
    <linearGradient
       id="linearGradient3861-2"
       x1="23"
       x2="23"
       y1="290.01785"
       y2="188.14763"
       gradientTransform="matrix(0.26458333,0,0,0.25828372,5.8e-7,-64.456013)"
       gradientUnits="userSpaceOnUse">
      <stop
         stop-color="#232629"
         offset="0"
         id="stop279" />
      <stop
         stop-color="#34495e"
         offset="1"
         id="stop281" />
    </linearGradient>
    <linearGradient
       id="linearGradient3156"
       x1="24"
       x2="24"
       y1="294"
       y2="257"
       gradientTransform="matrix(0.26458333,0,0,0.25828372,-1e-7,-64.293749)"
       gradientUnits="userSpaceOnUse">
      <stop
         stop-color="#f39c1f"
         offset="0"
         id="stop284" />
      <stop
         stop-color="#fdbc4b"
         offset="1"
         id="stop286" />
    </linearGradient>
    <linearGradient
       id="linearGradient12740"
       x1="12.623519"
       x2="10.24227"
       y1="-9.1016655"
       y2="-9.1016655"
       gradientTransform="matrix(1,0,0,1.2500004,0.07648094,16.317465)"
       gradientUnits="userSpaceOnUse">
      <stop
         stop-color="#e74c3c"
         offset="0"
         id="stop289" />
      <stop
         stop-color="#c0392b"
         offset="1"
         id="stop291" />
    </linearGradient>
    <linearGradient
       id="linearGradient12730"
       x1="11.565186"
       x2="10.771436"
       y1="-8.9958334"
       y2="-8.9958334"
       gradientTransform="matrix(1,0,0,1.2500004,0.07648094,14.552086)"
       gradientUnits="userSpaceOnUse">
      <stop
         stop-color="#2ecc71"
         offset="0"
         id="stop294" />
      <stop
         stop-color="#27ae60"
         offset="1"
         id="stop296" />
    </linearGradient>
    <linearGradient
       id="linearGradient13238"
       x1="31.999998"
       x2="41"
       y1="255"
       y2="264"
       gradientTransform="matrix(2.9279399,0,0,3.9513758,-17.033768,-1003.491)"
       gradientUnits="userSpaceOnUse"
       xlink:href="#linearGradient1339" />
    <linearGradient
       id="linearGradient13234"
       x1="11.565186"
       x2="10.771436"
       y1="-8.9958334"
       y2="-8.9958334"
       gradientTransform="matrix(1,0,0,1.2500004,0.07648094,18.785419)"
       gradientUnits="userSpaceOnUse">
      <stop
         stop-color="#3daee9"
         offset="0"
         id="stop300" />
      <stop
         stop-color="#2980b9"
         offset="1"
         id="stop302" />
    </linearGradient>
    <linearGradient
       id="linearGradient12767"
       x1="31.999998"
       x2="41"
       y1="255"
       y2="264"
       gradientTransform="matrix(2.9279399,0,0,3.9513758,-16.918125,-978.90367)"
       gradientUnits="userSpaceOnUse"
       xlink:href="#linearGradient1339" />
    <linearGradient
       id="linearGradient12771"
       x1="31.999998"
       x2="41"
       y1="255"
       y2="264"
       gradientTransform="matrix(1.3829337,0,0,1.0248213,-28.521067,-248.5766)"
       gradientUnits="userSpaceOnUse"
       xlink:href="#linearGradient1339" />
    <linearGradient
       id="linearGradient14153"
       x1="24"
       x2="24"
       y1="294"
       y2="257"
       gradientTransform="matrix(1.6444589,0,0,1.7262282,-1.3987351,-431.94791)"
       gradientUnits="userSpaceOnUse"
       xlink:href="#linearGradient3861-2" />
    <linearGradient
       id="linearGradient14157"
       x1="24"
       x2="24"
       y1="294"
       y2="257"
       gradientTransform="matrix(1.6444589,0,0,1.7262282,-1.3987351,-431.94791)"
       gradientUnits="userSpaceOnUse"
       xlink:href="#linearGradient13178" />
    <linearGradient
       id="linearGradient14165"
       x1="4.6942043"
       x2="43.809715"
       y1="260.48074"
       y2="299.59625"
       gradientTransform="matrix(0.13251656,0,0,0.13251656,2.1101174,-32.488169)"
       gradientUnits="userSpaceOnUse"
       xlink:href="#linearGradient1339" />
    <linearGradient
       inkscape:collect="always"
       xlink:href="#linearGradient13178"
       id="linearGradient390"
       gradientUnits="userSpaceOnUse"
       gradientTransform="matrix(0.26458333,0,0,0.25828372,-1e-7,-64.293749)"
       x1="24"
       y1="294"
       x2="24"
       y2="257" />
    <linearGradient
       inkscape:collect="always"
       xlink:href="#linearGradient13178"
       id="linearGradient392"
       gradientUnits="userSpaceOnUse"
       gradientTransform="matrix(0.26458333,0,0,0.25828372,-1e-7,-64.293749)"
       x1="24"
       y1="294"
       x2="24"
       y2="257" />
    <linearGradient
       inkscape:collect="always"
       xlink:href="#linearGradient13178"
       id="linearGradient394"
       gradientUnits="userSpaceOnUse"
       gradientTransform="matrix(0.26458333,0,0,0.25828372,-1e-7,-64.293749)"
       x1="24"
       y1="294"
       x2="24"
       y2="257" />
    <linearGradient
       inkscape:collect="always"
       xlink:href="#linearGradient3861-2"
       id="linearGradient396"
       gradientUnits="userSpaceOnUse"
       gradientTransform="matrix(1.6444589,0,0,1.7262282,-1.3987351,-431.94791)"
       x1="24"
       y1="294"
       x2="24"
       y2="257" />
  </defs>
  <metadata
     id="metadata312">
    <rdf:RDF>
      <cc:Work
         rdf:about="">
        <dc:format>image/svg+xml</dc:format>
        <dc:type
           rdf:resource="http://purl.org/dc/dcmitype/StillImage" />
      </cc:Work>
    </rdf:RDF>
  </metadata>
  <g
     id="g324"
     transform="matrix(2.4064345,0,0,3.0127254,2.3941301,-1.8232785)">
    <rect
       x="5.1791043"
       y="4.8299413"
       width="65.778358"
       height="70.733253"
       rx="9.8667507"
       ry="10.609985"
       fill="url(#linearGradient14153)"
       style="fill:url(#linearGradient396);stroke-width:6.44511;paint-order:markers fill stroke"
       id="rect314" />
    <rect
       x="5.1791043"
       y="4.8299413"
       width="52.622684"
       height="70.733253"
       rx="11.511211"
       ry="12.378319"
       fill="url(#linearGradient14153)"
       style="fill:url(#linearGradient14153);stroke-width:6.44511;paint-order:markers fill stroke"
       id="rect316" />
    <rect
       x="5.1791043"
       y="4.8299413"
       width="52.622684"
       height="70.733253"
       rx="9.8667517"
       ry="10.609987"
       fill="url(#linearGradient14157)"
       style="fill:url(#linearGradient14157);stroke-width:6.44511;paint-order:markers fill stroke"
       id="rect322" />
  </g>
  <g
     id="g338"
     transform="matrix(13.141675,0,0,20.135423,0.949025,-8.5819894)">
    <rect
       x="1.0583338"
       y="1.0583336"
       width="9.7895832"
       height="10.583333"
       rx="1.8520831"
       ry="1.8520831"
       fill="url(#linearGradient14157)"
       style="fill:url(#linearGradient390);paint-order:markers fill stroke"
       id="rect328" />
    <rect
       x="1.0583338"
       y="1.0583336"
       width="9.7895832"
       height="8.9958334"
       rx="1.8520831"
       ry="1.5874996"
       fill="url(#linearGradient14157)"
       style="fill:url(#linearGradient392);paint-order:markers fill stroke"
       id="rect332" />
    <rect
       x="9.491992"
       y="7.6729169"
       width="1.3559251"
       height="1.0583332"
       rx="0"
       ry="0"
       fill="url(#linearGradient14157)"
       style="fill:url(#linearGradient394);paint-order:markers fill stroke"
       id="rect334" />
    <rect
       x="1.0583338"
       y="1.0583336"
       width="9.5249996"
       height="10.318749"
       rx="1.5874997"
       ry="1.5874997"
       fill="url(#linearGradient3156)"
       style="fill:url(#linearGradient3156);paint-order:markers fill stroke"
       id="rect336" />
  </g>
  <g
     shape-rendering="auto"
     id="g372"
     transform="matrix(13.141675,0,0,20.135423,0.949025,-8.5819894)">
    <path
       d="m 1.9089192,2.9377607 c -0.1563847,0 -0.2871094,0.128761 -0.2871094,0.285157 0,0.156395 0.1307247,0.285156 0.2871094,0.285156 0.1563846,0 0.2851562,-0.128761 0.2851562,-0.285156 0,-0.156396 -0.1287716,-0.285157 -0.2851562,-0.285157 z m 0,0.197266 c 0.050309,0 0.087891,0.03828 0.087891,0.08789 0,0.04961 -0.037581,0.08789 -0.087891,0.08789 -0.050309,0 -0.089844,-0.03828 -0.089844,-0.08789 0,-0.04961 0.039534,-0.08789 0.089844,-0.08789 z"
       color="#000000"
       color-rendering="auto"
       dominant-baseline="auto"
       fill="#232629"
       image-rendering="auto"
       solid-color="#000000"
       style="font-variant-ligatures:normal;font-variant-position:normal;font-variant-caps:normal;font-variant-numeric:normal;font-variant-alternates:normal;font-feature-settings:normal;text-indent:0;text-decoration-line:none;text-decoration-style:solid;text-decoration-color:#000000;text-transform:none;text-orientation:mixed;white-space:normal;shape-padding:0;isolation:auto;mix-blend-mode:normal;paint-order:markers fill stroke"
       id="path348" />
    <path
       d="m 0.12962234,3.1291677 c -0.0164115,0.05619 -0.004845,0.120321 0.0234375,0.167968 0.0565655,0.0953 0.15565464,0.145674 0.28710937,0.189454 0.26289977,0.08755 0.62745669,0.111409 0.95507809,0.06641 0.3431878,-0.04715 0.578125,-0.236328 0.578125,-0.236328 0.1263844,-0.09114 -0.021733,-0.276804 -0.1386719,-0.173828 -0.055627,0.04899 -0.1905298,0.151226 -0.46875,0.189453 -0.2937845,0.04036 -0.64346045,0.01397 -0.85546868,-0.05664 -0.10355718,-0.03449 -0.15429016,-0.07869 -0.16210938,-0.08984 0.001488,-0.0025 0.002353,-0.0054 0.0175781,-0.01758 0.0518536,-0.04138 0.18819729,-0.09426 0.35937499,-0.121094 0.14718946,-0.0234 0.11203326,-0.244101 -0.0351562,-0.220703 -0.19259034,0.030181 -0.35220832,0.07964 -0.46289067,0.167962 -0.0443172,0.03536 -0.0812448,0.078571 -0.0976562,0.134766 z"
       color="#000000"
       color-rendering="auto"
       dominant-baseline="auto"
       fill="#bdc3c7"
       image-rendering="auto"
       solid-color="#000000"
       style="font-variant-ligatures:normal;font-variant-position:normal;font-variant-caps:normal;font-variant-numeric:normal;font-variant-alternates:normal;font-feature-settings:normal;text-indent:0;text-decoration-line:none;text-decoration-style:solid;text-decoration-color:#000000;text-transform:none;text-orientation:mixed;white-space:normal;shape-padding:0;isolation:auto;mix-blend-mode:normal;paint-order:markers fill stroke"
       id="path350" />
    <path
       d="m 0.18040359,3.0373707 0.16601563,0.148437 c 0.003282,-0.0037 0.016054,-0.01479 0.0195313,-0.01758 0.0826527,-0.06596 0.36999135,-0.146743 0.69140628,-0.146484 l 0.00195,-0.222654 c -0.35101913,-2.83e-4 -0.65622598,0.055022 -0.83203128,0.195312 -0.0190027,0.01522 -0.0336972,0.02829 -0.046875,0.04297 z"
       color="#000000"
       color-rendering="auto"
       dominant-baseline="auto"
       fill="#9ca5ac"
       image-rendering="auto"
       solid-color="#000000"
       style="font-variant-ligatures:normal;font-variant-position:normal;font-variant-caps:normal;font-variant-numeric:normal;font-variant-alternates:normal;font-feature-settings:normal;text-indent:0;text-decoration-line:none;text-decoration-style:solid;text-decoration-color:#000000;text-transform:none;text-orientation:mixed;white-space:normal;shape-padding:0;isolation:auto;mix-blend-mode:normal;paint-order:markers fill stroke"
       id="path352" />
    <path
       d="m 1.9089192,5.0544271 c -0.1563847,0 -0.2871094,0.128761 -0.2871094,0.285157 0,0.156395 0.1307247,0.285156 0.2871094,0.285156 0.1563846,0 0.2851562,-0.128761 0.2851562,-0.285156 0,-0.156396 -0.1287716,-0.285157 -0.2851562,-0.285157 z m 0,0.197266 c 0.050309,0 0.087891,0.03828 0.087891,0.08789 0,0.04961 -0.037581,0.08789 -0.087891,0.08789 -0.050309,0 -0.089844,-0.03828 -0.089844,-0.08789 0,-0.04961 0.039534,-0.08789 0.089844,-0.08789 z"
       color="#000000"
       color-rendering="auto"
       dominant-baseline="auto"
       fill="#232629"
       image-rendering="auto"
       solid-color="#000000"
       style="font-variant-ligatures:normal;font-variant-position:normal;font-variant-caps:normal;font-variant-numeric:normal;font-variant-alternates:normal;font-feature-settings:normal;text-indent:0;text-decoration-line:none;text-decoration-style:solid;text-decoration-color:#000000;text-transform:none;text-orientation:mixed;white-space:normal;shape-padding:0;isolation:auto;mix-blend-mode:normal;paint-order:markers fill stroke"
       id="path354" />
    <path
       d="m 0.12962234,5.2458341 c -0.0164115,0.05619 -0.004845,0.120321 0.0234375,0.167968 0.0565655,0.0953 0.15565464,0.145674 0.28710937,0.189454 0.26289977,0.08755 0.62745669,0.111409 0.95507809,0.06641 0.3431878,-0.04715 0.578125,-0.236328 0.578125,-0.236328 0.1263844,-0.09114 -0.021733,-0.276804 -0.1386719,-0.173828 -0.055627,0.04899 -0.1905298,0.151226 -0.46875,0.189453 -0.2937845,0.04036 -0.64346045,0.01397 -0.85546868,-0.05664 -0.10355718,-0.03449 -0.15429016,-0.07869 -0.16210938,-0.08984 0.001488,-0.0025 0.002353,-0.0054 0.0175781,-0.01758 0.0518536,-0.04138 0.18819729,-0.09426 0.35937499,-0.121094 0.14718946,-0.0234 0.11203326,-0.244101 -0.0351562,-0.220703 -0.19259034,0.030181 -0.35220832,0.07964 -0.46289067,0.167962 -0.0443172,0.03536 -0.0812448,0.078571 -0.0976562,0.134766 z"
       color="#000000"
       color-rendering="auto"
       dominant-baseline="auto"
       fill="#bdc3c7"
       image-rendering="auto"
       solid-color="#000000"
       style="font-variant-ligatures:normal;font-variant-position:normal;font-variant-caps:normal;font-variant-numeric:normal;font-variant-alternates:normal;font-feature-settings:normal;text-indent:0;text-decoration-line:none;text-decoration-style:solid;text-decoration-color:#000000;text-transform:none;text-orientation:mixed;white-space:normal;shape-padding:0;isolation:auto;mix-blend-mode:normal;paint-order:markers fill stroke"
       id="path356" />
    <path
       d="m 0.18040359,5.1540371 0.16601563,0.148437 c 0.003282,-0.0037 0.016054,-0.01479 0.0195313,-0.01758 0.0826527,-0.06596 0.36999135,-0.146743 0.69140628,-0.146484 l 0.00195,-0.222654 c -0.35101913,-2.83e-4 -0.65622598,0.055022 -0.83203128,0.195312 -0.0190027,0.01522 -0.0336972,0.02829 -0.046875,0.04297 z"
       color="#000000"
       color-rendering="auto"
       dominant-baseline="auto"
       fill="#9ca5ac"
       image-rendering="auto"
       solid-color="#000000"
       style="font-variant-ligatures:normal;font-variant-position:normal;font-variant-caps:normal;font-variant-numeric:normal;font-variant-alternates:normal;font-feature-settings:normal;text-indent:0;text-decoration-line:none;text-decoration-style:solid;text-decoration-color:#000000;text-transform:none;text-orientation:mixed;white-space:normal;shape-padding:0;isolation:auto;mix-blend-mode:normal;paint-order:markers fill stroke"
       id="path358" />
    <path
       d="m 1.9089192,7.1710939 c -0.1563847,0 -0.2871094,0.128761 -0.2871094,0.285157 0,0.156395 0.1307247,0.285156 0.2871094,0.285156 0.1563846,0 0.2851562,-0.128761 0.2851562,-0.285156 0,-0.156396 -0.1287716,-0.285157 -0.2851562,-0.285157 z m 0,0.197266 c 0.050309,0 0.087891,0.03828 0.087891,0.08789 0,0.04961 -0.037581,0.08789 -0.087891,0.08789 -0.050309,0 -0.089844,-0.03828 -0.089844,-0.08789 0,-0.04961 0.039534,-0.08789 0.089844,-0.08789 z"
       color="#000000"
       color-rendering="auto"
       dominant-baseline="auto"
       fill="#232629"
       image-rendering="auto"
       solid-color="#000000"
       style="font-variant-ligatures:normal;font-variant-position:normal;font-variant-caps:normal;font-variant-numeric:normal;font-variant-alternates:normal;font-feature-settings:normal;text-indent:0;text-decoration-line:none;text-decoration-style:solid;text-decoration-color:#000000;text-transform:none;text-orientation:mixed;white-space:normal;shape-padding:0;isolation:auto;mix-blend-mode:normal;paint-order:markers fill stroke"
       id="path360" />
    <path
       d="m 0.12962234,7.3625009 c -0.0164115,0.05619 -0.004845,0.120321 0.0234375,0.167968 0.0565655,0.0953 0.15565464,0.145674 0.28710937,0.189454 0.26289977,0.08755 0.62745669,0.111409 0.95507809,0.06641 0.3431878,-0.04715 0.578125,-0.236328 0.578125,-0.236328 0.1263844,-0.09114 -0.021733,-0.276804 -0.1386719,-0.173828 -0.055627,0.04899 -0.1905298,0.151226 -0.46875,0.189453 -0.2937845,0.04036 -0.64346045,0.01397 -0.85546868,-0.05664 -0.10355718,-0.03449 -0.15429016,-0.07869 -0.16210938,-0.08984 0.001488,-0.0025 0.002353,-0.0054 0.0175781,-0.01758 0.0518536,-0.04138 0.18819729,-0.09426 0.35937499,-0.121094 0.14718946,-0.0234 0.11203326,-0.244101 -0.0351562,-0.220703 -0.19259034,0.030181 -0.35220832,0.07964 -0.46289067,0.167962 -0.0443172,0.03536 -0.0812448,0.078571 -0.0976562,0.134766 z"
       color="#000000"
       color-rendering="auto"
       dominant-baseline="auto"
       fill="#bdc3c7"
       image-rendering="auto"
       solid-color="#000000"
       style="font-variant-ligatures:normal;font-variant-position:normal;font-variant-caps:normal;font-variant-numeric:normal;font-variant-alternates:normal;font-feature-settings:normal;text-indent:0;text-decoration-line:none;text-decoration-style:solid;text-decoration-color:#000000;text-transform:none;text-orientation:mixed;white-space:normal;shape-padding:0;isolation:auto;mix-blend-mode:normal;paint-order:markers fill stroke"
       id="path362" />
    <path
       d="m 0.18040359,7.2707039 0.16601563,0.148437 c 0.003282,-0.0037 0.016054,-0.01479 0.0195313,-0.01758 0.0826527,-0.06596 0.36999135,-0.146743 0.69140628,-0.146484 l 0.00195,-0.222654 c -0.35101913,-2.83e-4 -0.65622598,0.055022 -0.83203128,0.195312 -0.0190027,0.01522 -0.0336972,0.02829 -0.046875,0.04297 z"
       color="#000000"
       color-rendering="auto"
       dominant-baseline="auto"
       fill="#9ca5ac"
       image-rendering="auto"
       solid-color="#000000"
       style="font-variant-ligatures:normal;font-variant-position:normal;font-variant-caps:normal;font-variant-numeric:normal;font-variant-alternates:normal;font-feature-settings:normal;text-indent:0;text-decoration-line:none;text-decoration-style:solid;text-decoration-color:#000000;text-transform:none;text-orientation:mixed;white-space:normal;shape-padding:0;isolation:auto;mix-blend-mode:normal;paint-order:markers fill stroke"
       id="path364" />
    <path
       d="m 1.9089192,9.2877605 c -0.1563847,0 -0.2871094,0.128761 -0.2871094,0.285157 0,0.156395 0.1307247,0.285156 0.2871094,0.285156 0.1563846,0 0.2851562,-0.128761 0.2851562,-0.285156 0,-0.156396 -0.1287716,-0.285157 -0.2851562,-0.285157 z m 0,0.197266 c 0.050309,0 0.087891,0.03828 0.087891,0.08789 0,0.04961 -0.037581,0.08789 -0.087891,0.08789 -0.050309,0 -0.089844,-0.03828 -0.089844,-0.08789 0,-0.04961 0.039534,-0.08789 0.089844,-0.08789 z"
       color="#000000"
       color-rendering="auto"
       dominant-baseline="auto"
       fill="#232629"
       image-rendering="auto"
       solid-color="#000000"
       style="font-variant-ligatures:normal;font-variant-position:normal;font-variant-caps:normal;font-variant-numeric:normal;font-variant-alternates:normal;font-feature-settings:normal;text-indent:0;text-decoration-line:none;text-decoration-style:solid;text-decoration-color:#000000;text-transform:none;text-orientation:mixed;white-space:normal;shape-padding:0;isolation:auto;mix-blend-mode:normal;paint-order:markers fill stroke"
       id="path366" />
    <path
       d="m 0.12962234,9.4791675 c -0.0164115,0.05619 -0.004845,0.120321 0.0234375,0.167968 0.0565655,0.0953 0.15565464,0.145674 0.28710937,0.189454 0.26289977,0.08755 0.62745669,0.111409 0.95507809,0.06641 0.3431878,-0.04715 0.578125,-0.236328 0.578125,-0.236328 0.1263844,-0.09114 -0.021733,-0.276804 -0.1386719,-0.173828 -0.055627,0.04899 -0.1905298,0.151226 -0.46875,0.189453 -0.2937845,0.04036 -0.64346045,0.01397 -0.85546868,-0.05664 -0.10355718,-0.03449 -0.15429016,-0.07869 -0.16210938,-0.08984 0.001488,-0.0025 0.002353,-0.0054 0.0175781,-0.01758 0.0518536,-0.04138 0.18819729,-0.09426 0.35937499,-0.121094 0.14718946,-0.0234 0.11203326,-0.244101 -0.0351562,-0.220703 -0.19259034,0.030181 -0.35220832,0.07964 -0.46289067,0.167962 -0.0443172,0.03536 -0.0812448,0.078571 -0.0976562,0.134766 z"
       color="#000000"
       color-rendering="auto"
       dominant-baseline="auto"
       fill="#bdc3c7"
       image-rendering="auto"
       solid-color="#000000"
       style="font-variant-ligatures:normal;font-variant-position:normal;font-variant-caps:normal;font-variant-numeric:normal;font-variant-alternates:normal;font-feature-settings:normal;text-indent:0;text-decoration-line:none;text-decoration-style:solid;text-decoration-color:#000000;text-transform:none;text-orientation:mixed;white-space:normal;shape-padding:0;isolation:auto;mix-blend-mode:normal;paint-order:markers fill stroke"
       id="path368" />
    <path
       d="m 0.18040359,9.3873705 0.16601563,0.148437 c 0.003282,-0.0037 0.016054,-0.01479 0.0195313,-0.01758 0.0826527,-0.06596 0.36999135,-0.146743 0.69140628,-0.146484 l 0.00195,-0.222654 c -0.35101913,-2.83e-4 -0.65622598,0.055022 -0.83203128,0.195312 -0.0190027,0.01522 -0.0336972,0.02829 -0.046875,0.04297 z"
       color="#000000"
       color-rendering="auto"
       dominant-baseline="auto"
       fill="#9ca5ac"
       image-rendering="auto"
       solid-color="#000000"
       style="font-variant-ligatures:normal;font-variant-position:normal;font-variant-caps:normal;font-variant-numeric:normal;font-variant-alternates:normal;font-feature-settings:normal;text-indent:0;text-decoration-line:none;text-decoration-style:solid;text-decoration-color:#000000;text-transform:none;text-orientation:mixed;white-space:normal;shape-padding:0;isolation:auto;mix-blend-mode:normal;paint-order:markers fill stroke"
       id="path370" />
  </g>
  <rect
     x="119.16934"
     y="169.28543"
     width="27.044327"
     height="51.214973"
     rx="3.6943851"
     ry="5.3274961"
     fill-opacity="0"
     opacity="0.2"
     style="stroke-width:16.2668;paint-order:stroke markers fill"
     id="rect374" />
  <rect
     x="119.16934"
     y="209.84537"
     width="32.833515"
     height="10.654992"
     rx="3.6943851"
     ry="5.3274961"
     fill-opacity="0"
     opacity="0.2"
     style="stroke-width:16.2668;paint-order:stroke markers fill"
     id="rect376" />
</svg>
